<svg width="32" height="32" viewBox="0 0 32 32" fill="none" xmlns="http://www.w3.org/2000/svg">
<rect width="32" height="32" rx="3" fill="#132DB6"/>
<path d="M9.57306 28.176C8.64506 28.176 7.70106 28.064 6.74106 27.84C6.48506 27.776 6.26906 27.64 6.09306 27.432C5.93306 27.224 5.85306 26.984 5.85306 26.712C5.85306 26.392 5.96506 26.12 6.18906 25.896C6.42906 25.672 6.70106 25.56 7.00506 25.56C7.19706 25.56 7.45306 25.6 7.77306 25.68C7.83706 25.696 8.03706 25.728 8.37306 25.776C8.70906 25.84 9.10106 25.872 9.54906 25.872C11.1971 25.872 12.0851 25.048 12.2131 23.4L12.2611 22.824C11.9891 23.192 11.6291 23.472 11.1811 23.664C10.7331 23.84 10.2531 23.928 9.74106 23.928C8.89306 23.928 8.09306 23.72 7.34106 23.304C6.60506 22.872 6.01306 22.256 5.56506 21.456C5.11706 20.64 4.89306 19.688 4.89306 18.6C4.89306 17.464 5.14106 16.4 5.63706 15.408C6.14906 14.416 6.83706 13.624 7.70106 13.032C8.58106 12.44 9.54906 12.144 10.6051 12.144C11.1971 12.144 11.8611 12.288 12.5971 12.576C12.7251 12.128 13.0931 11.904 13.7011 11.904C14.0371 11.904 14.3091 12 14.5171 12.192C14.7411 12.368 14.8451 12.664 14.8291 13.08L14.5891 23.208C14.5571 24.856 14.0851 26.096 13.1731 26.928C12.2611 27.76 11.0611 28.176 9.57306 28.176ZM9.59706 21.672C10.4771 21.672 11.1651 21.36 11.6611 20.736C12.1571 20.096 12.4051 19.112 12.4051 17.784V14.88C12.1811 14.752 11.9091 14.648 11.5891 14.568C11.2851 14.488 10.9891 14.448 10.7011 14.448C10.0451 14.448 9.43706 14.624 8.87706 14.976C8.33306 15.312 7.89306 15.784 7.55706 16.392C7.23706 17 7.07706 17.68 7.07706 18.432C7.07706 19.408 7.31706 20.192 7.79706 20.784C8.29306 21.376 8.89306 21.672 9.59706 21.672ZM23.0815 24.144C22.1215 24.144 21.2415 23.912 20.4415 23.448C19.6415 22.984 19.0095 22.352 18.5455 21.552C18.0815 20.736 17.8495 19.848 17.8495 18.888C17.8495 17.8 18.1055 16.736 18.6175 15.696C19.1295 14.656 19.8015 13.808 20.6335 13.152C21.4655 12.496 22.3455 12.168 23.2735 12.168C24.1215 12.168 24.8015 12.304 25.3135 12.576C25.8415 12.832 26.3535 13.248 26.8495 13.824C27.0895 14.08 27.2095 14.36 27.2095 14.664C27.2095 14.968 27.0975 15.232 26.8735 15.456C26.6495 15.664 26.3775 15.768 26.0575 15.768C25.8495 15.768 25.6815 15.736 25.5535 15.672C25.4415 15.608 25.3055 15.48 25.1455 15.288C24.8735 14.984 24.6015 14.752 24.3295 14.592C24.0735 14.432 23.7295 14.352 23.2975 14.352C22.8015 14.352 22.2975 14.568 21.7855 15C21.2895 15.432 20.8815 16 20.5615 16.704C20.2575 17.392 20.1055 18.104 20.1055 18.84C20.1055 19.48 20.2415 20.04 20.5135 20.52C20.8015 20.984 21.1695 21.344 21.6175 21.6C22.0655 21.84 22.5375 21.96 23.0335 21.96C23.6735 21.96 24.1935 21.84 24.5935 21.6C25.0095 21.36 25.3775 21.032 25.6975 20.616C26.0015 20.216 26.3455 20.016 26.7295 20.016C27.0335 20.016 27.2975 20.128 27.5215 20.352C27.7455 20.56 27.8575 20.8 27.8575 21.072C27.8575 21.392 27.7695 21.664 27.5935 21.888C27.1295 22.512 26.4975 23.048 25.6975 23.496C24.8975 23.928 24.0255 24.144 23.0815 24.144Z" fill="#FED800"/>
</svg>
